<?xml version="1.0" encoding="utf-8"?>
<!-- Generator: Adobe Illustrator 25.0.0, SVG Export Plug-In . SVG Version: 6.00 Build 0)  -->
<svg version="1.1" id="Layer_1" xmlns="http://www.w3.org/2000/svg" xmlns:xlink="http://www.w3.org/1999/xlink" x="0px" y="0px"
	 viewBox="0 0 1024 1024" style="enable-background:new 0 0 1024 1024;" xml:space="preserve">
<style type="text/css">
	.st0{fill:#FFFFFF;}
</style>
<circle class="st0" cx="513" cy="513" r="511"/>
<g>
	<g>
		<g>
			<path d="M299.12,505.91c-11.22,35.51-22.44,71.03-33.66,106.54c-11.27,35.68-22.55,71.35-33.82,107.03
				c-5.61,17.76-11.22,35.51-16.83,53.27c-2.81,8.88-5.61,17.76-8.42,26.63c-2.08,6.58-3.56,12.63-4.24,19.59
				c-0.41,4.23,0.24,8.83,1.18,12.89c0.47,2.02,1.35,3.79,2.17,5.72c0.88,2.08,1.54,3.99,2.8,5.8c4.58,6.55,10.21,12.37,17.5,15.92
				c5.53,2.69,11.43,5.07,17.39,6.69c10.18,2.78,21.05,4.02,31.59,4.07c19.3,0.11,38.57-3.79,57.42-7.53
				c36.57-7.24,73.14-14.49,109.71-21.73c8.04-1.59,16.16-3.04,24.01-5.43c9.48-2.89,19.18-6.81,27.16-12.81
				c4.6-3.46,9.19-6.89,13.07-11.15c3.85-4.22,7.36-8.84,10.54-13.58c5.22-7.78,8.8-16.5,12.3-25.15
				c6.03-14.91,10.03-30.67,14.62-46.06c5.32-17.87,10.64-35.74,15.97-53.62c10.64-35.74,21.29-71.49,31.93-107.23
				c10.69-35.91,21.39-71.82,32.08-107.73c10.64-35.74,21.29-71.49,31.93-107.23c2.61-8.77,5.22-17.54,7.83-26.31
				c2.19-7.37,0.83-16.53-3.02-23.12c-3.64-6.22-10.78-12.16-17.93-13.79c-7.68-1.75-16.3-1.37-23.12,3.02
				c-6.65,4.29-11.49,10.23-13.79,17.93c-17.79,59.74-35.58,119.48-53.36,179.22c-17.79,59.74-35.58,119.48-53.36,179.22
				c-4.93,16.55-9.86,33.1-14.78,49.64c-4.22,14.18-7.99,28.64-13.75,42.3c1.01-2.39,2.02-4.78,3.02-7.17
				c-2.96,6.9-6.48,13.53-11.04,19.51c1.56-2.02,3.13-4.05,4.69-6.07c-2.99,3.82-6.35,7.27-10.18,10.25
				c2.02-1.56,4.05-3.13,6.07-4.69c-3.87,2.93-8.08,5.25-12.55,7.14c2.39-1.01,4.78-2.02,7.17-3.02
				c-9.44,3.84-19.48,5.71-29.44,7.68c-11.46,2.27-22.92,4.54-34.38,6.81c-22.75,4.51-45.5,9.01-68.26,13.52
				c-12.18,2.41-24.34,4.99-36.65,6.68c2.66-0.36,5.32-0.71,7.98-1.07c-11.68,1.55-23.49,2.22-35.2,0.67
				c2.66,0.36,5.32,0.71,7.98,1.07c-6.57-0.94-13.04-2.55-19.16-5.13c2.39,1.01,4.78,2.02,7.17,3.02c-1.86-0.82-3.61-1.76-5.26-2.95
				c2.02,1.56,4.05,3.13,6.07,4.69c-0.98-0.77-1.84-1.59-2.64-2.54c1.56,2.02,3.13,4.05,4.69,6.07c-0.6-0.8-1.08-1.61-1.51-2.51
				c1.01,2.39,2.02,4.78,3.02,7.17c-0.33-0.87-0.56-1.67-0.74-2.58c0.36,2.66,0.71,5.32,1.07,7.98c-0.2-1.52-0.18-2.96-0.02-4.48
				c-0.36,2.66-0.71,5.32-1.07,7.98c0.71-4.82,2.49-9.46,3.95-14.09c1.61-5.1,3.22-10.19,4.83-15.29
				c3.12-9.86,6.23-19.73,9.35-29.59c6.29-19.89,12.57-39.79,18.86-59.68c12.57-39.79,25.14-79.57,37.72-119.36
				c7.07-22.36,14.13-44.72,21.2-67.08c2.29-7.26,0.76-16.64-3.02-23.12c-3.64-6.22-10.78-12.16-17.93-13.79
				c-7.68-1.75-16.3-1.37-23.12,3.02C306.2,492.31,301.56,498.21,299.12,505.91L299.12,505.91z"/>
		</g>
	</g>
	<g>
		<g>
			<path d="M724.88,518.09c11.22-35.51,22.44-71.03,33.66-106.54c11.27-35.68,22.55-71.35,33.82-107.03
				c5.61-17.76,11.22-35.51,16.83-53.27c2.81-8.88,5.61-17.76,8.42-26.63c2.08-6.58,3.56-12.63,4.24-19.59
				c0.41-4.23-0.24-8.83-1.18-12.89c-0.47-2.02-1.35-3.79-2.17-5.72c-0.88-2.08-1.54-3.99-2.8-5.8
				c-4.58-6.56-10.21-12.37-17.5-15.92c-5.53-2.69-11.43-5.07-17.39-6.69c-10.18-2.78-21.05-4.02-31.59-4.07
				c-19.3-0.11-38.57,3.79-57.42,7.53c-36.57,7.24-73.14,14.49-109.71,21.73c-8.04,1.59-16.16,3.04-24.01,5.43
				c-9.48,2.89-19.18,6.81-27.16,12.81c-4.6,3.46-9.19,6.89-13.07,11.16c-3.85,4.22-7.36,8.84-10.54,13.58
				c-5.22,7.78-8.8,16.5-12.3,25.15c-6.03,14.91-10.03,30.67-14.62,46.06c-5.32,17.87-10.64,35.74-15.97,53.62
				c-10.64,35.74-21.29,71.49-31.93,107.23c-10.69,35.91-21.39,71.82-32.08,107.73c-10.64,35.74-21.29,71.49-31.93,107.23
				c-2.61,8.77-5.22,17.54-7.83,26.31c-2.19,7.37-0.83,16.53,3.02,23.12c3.64,6.22,10.78,12.16,17.93,13.79
				c7.68,1.75,16.3,1.37,23.12-3.02c6.65-4.29,11.49-10.23,13.79-17.93c17.79-59.74,35.58-119.48,53.36-179.22
				s35.58-119.48,53.36-179.22c4.93-16.55,9.85-33.1,14.78-49.64c4.22-14.18,7.99-28.64,13.75-42.3c-1.01,2.39-2.02,4.78-3.02,7.17
				c2.96-6.9,6.48-13.53,11.04-19.51c-1.56,2.02-3.13,4.05-4.69,6.07c2.99-3.82,6.35-7.27,10.18-10.25
				c-2.02,1.56-4.05,3.13-6.07,4.69c3.87-2.93,8.08-5.25,12.55-7.14c-2.39,1.01-4.78,2.02-7.17,3.02
				c9.44-3.84,19.48-5.71,29.44-7.68c11.46-2.27,22.92-4.54,34.38-6.81c22.75-4.51,45.5-9.01,68.26-13.52
				c12.18-2.41,24.34-4.99,36.65-6.68c-2.66,0.36-5.32,0.71-7.98,1.07c11.68-1.55,23.49-2.22,35.2-0.67
				c-2.66-0.36-5.32-0.71-7.98-1.07c6.57,0.94,13.04,2.55,19.16,5.13c-2.39-1.01-4.78-2.02-7.17-3.02c1.86,0.82,3.61,1.76,5.26,2.95
				c-2.02-1.56-4.05-3.13-6.07-4.69c0.98,0.77,1.84,1.59,2.64,2.54c-1.56-2.02-3.13-4.05-4.69-6.07c0.6,0.8,1.08,1.61,1.51,2.51
				c-1.01-2.39-2.02-4.78-3.02-7.17c0.33,0.87,0.56,1.67,0.74,2.58c-0.36-2.66-0.71-5.32-1.07-7.98c0.2,1.52,0.18,2.96,0.02,4.48
				c0.36-2.66,0.71-5.32,1.07-7.98c-0.71,4.82-2.49,9.46-3.95,14.09c-1.61,5.1-3.22,10.19-4.83,15.29
				c-3.12,9.86-6.23,19.73-9.35,29.59c-6.29,19.89-12.57,39.79-18.86,59.68c-12.57,39.79-25.14,79.57-37.72,119.36
				c-7.07,22.36-14.13,44.72-21.2,67.08c-2.29,7.26-0.76,16.64,3.02,23.12c3.64,6.22,10.78,12.16,17.93,13.79
				c7.68,1.75,16.3,1.37,23.12-3.02C717.8,531.69,722.44,525.79,724.88,518.09L724.88,518.09z"/>
		</g>
	</g>
</g>
</svg>
